<?xml version="1.0" standalone="no"?>
<!DOCTYPE svg PUBLIC "-//W3C//DTD SVG 20010904//EN"
 "http://www.w3.org/TR/2001/REC-SVG-20010904/DTD/svg10.dtd">
<svg version="1.0" xmlns="http://www.w3.org/2000/svg"
 width="512.000000pt" height="512.000000pt" viewBox="0 0 512.000000 512.000000"
 preserveAspectRatio="xMidYMid meet">

<g transform="translate(0.000000,512.000000) scale(0.100000,-0.100000)"
fill="#000000" stroke="none">
<path d="M2213 5105 c-208 -45 -387 -235 -424 -449 -11 -64 -8 -161 7 -213 6
-20 -24 -37 -398 -224 l-405 -202 -37 41 c-49 53 -148 116 -227 142 -353 119
-728 -153 -729 -531 0 -76 33 -199 72 -268 43 -75 149 -179 223 -218 118 -62
274 -80 399 -48 191 50 351 211 401 402 16 62 19 187 6 244 l-8 36 403 201
404 202 36 -40 c71 -78 204 -148 314 -164 l46 -7 38 -317 c21 -174 41 -331 43
-349 5 -31 3 -33 -63 -65 -279 -136 -389 -482 -241 -763 68 -127 219 -242 366
-275 81 -19 231 -8 312 22 92 34 192 108 242 179 23 32 47 58 52 58 6 1 224
-70 485 -157 l475 -159 6 -89 c7 -108 28 -182 75 -260 68 -113 179 -204 299
-244 l65 -22 0 -234 0 -233 -53 -16 c-124 -36 -259 -149 -324 -270 -113 -213
-73 -477 96 -646 81 -80 155 -123 257 -149 381 -98 740 222 686 612 -29 207
-175 383 -375 452 l-62 21 -3 232 -2 232 42 11 c172 46 330 202 383 377 91
298 -89 616 -391 693 -225 58 -451 -23 -589 -210 l-36 -49 -482 164 -482 163
-1 75 c-4 145 -58 270 -162 376 -76 77 -179 133 -284 155 -34 7 -63 17 -65 22
-4 14 -83 650 -83 672 0 14 18 28 68 52 85 42 183 135 230 219 93 167 97 368
9 536 -38 73 -152 189 -224 228 -112 60 -261 80 -390 52z m182 -216 c33 -6 75
-19 95 -29 56 -28 119 -96 148 -158 37 -78 38 -202 3 -276 -30 -63 -102 -135
-166 -166 -74 -35 -199 -35 -275 1 -172 81 -243 287 -157 455 44 86 135 155
230 174 59 11 57 11 122 -1z m-1709 -910 c66 -25 139 -95 172 -167 20 -45 26
-73 26 -137 1 -71 -3 -88 -32 -147 -59 -120 -161 -183 -297 -183 -65 0 -90 5
-135 26 -212 100 -261 381 -93 540 97 93 225 117 359 68z m2002 -891 c64 -24
139 -94 172 -163 21 -43 25 -64 25 -145 0 -83 -4 -101 -27 -145 -32 -62 -103
-129 -166 -158 -73 -34 -198 -31 -273 6 -195 95 -251 346 -114 512 91 112 237
147 383 93z m1944 -649 c253 -52 349 -365 170 -552 -163 -170 -440 -123 -541
92 -37 80 -37 192 0 272 44 94 130 165 226 188 53 13 84 13 145 0z m69 -1581
c134 -62 216 -214 190 -355 -50 -267 -370 -370 -562 -180 -176 175 -100 475
140 552 66 21 165 14 232 -17z"/>
</g>
</svg>
