<?xml version="1.0" encoding="UTF-8"?>
<!-- Generator: Adobe Illustrator 22.0.1, SVG Export Plug-In . SVG Version: 6.00 Build 0)  -->
<svg fill="#000000" xmlns="http://www.w3.org/2000/svg" xmlns:xlink="http://www.w3.org/1999/xlink" xmlns:dc="http://purl.org/dc/elements/1.1/" xmlns:cc="http://creativecommons.org/ns#" xmlns:rdf="http://www.w3.org/1999/02/22-rdf-syntax-ns#" version="1.1" id="designs" x="0px" y="0px" width="32px" height="32px" viewBox="0 0 32 32" style="enable-background:new 0 0 32 32;" xml:space="preserve">
<title property="dc:title">to connect</title><desc property="dc:description">An icon for "connect" from the Science and Fiction series on to [icon]. Downloaded from http://www.toicon.com/icons/science-and-fiction_connect by 181.59.57.126 on 2018-02-07. Licensed CC-BY, see http://toicon.com/license/ for details.</desc>
<path fill="#000000" class="scienceandfiction_twee" d="M5,24v1H4v-1H5L5,24z M10,17H9v1h1V17L10,17z M13,14h-1v1h1V14L13,14z M9,10H8v1h1V10L9,10z   M10,22H9v1h1V22L10,22z M25,15h-1v1h1V15L25,15z M30,18h-1v1h1V18L30,18z M27,3h-1v1h1V3L27,3z M20,9h-1v1h1V9L20,9z M18,2.5  C18,2.776,18.224,3,18.5,3S19,2.776,19,2.5S18.776,2,18.5,2S18,2.224,18,2.5z M18.5,1C19.328,1,20,1.671,20,2.5S19.328,4,18.5,4  S17,3.329,17,2.5S17.672,1,18.5,1L18.5,1z M25,9.5c0,0.276,0.224,0.5,0.5,0.5S26,9.776,26,9.5S25.776,9,25.5,9S25,9.224,25,9.5z   M25.5,8C26.328,8,27,8.671,27,9.5S26.328,11,25.5,11S24,10.329,24,9.5S24.672,8,25.5,8L25.5,8z M3,12.5C3,12.776,3.224,13,3.5,13  S4,12.776,4,12.5S3.776,12,3.5,12S3,12.224,3,12.5z M3.5,11C4.328,11,5,11.671,5,12.5S4.328,14,3.5,14S2,13.329,2,12.5  S2.672,11,3.5,11L3.5,11z M10,29.5c0,0.276,0.224,0.5,0.5,0.5s0.5-0.224,0.5-0.5S10.776,29,10.5,29S10,29.224,10,29.5z M10.5,28  c0.828,0,1.5,0.671,1.5,1.5S11.328,31,10.5,31S9,30.329,9,29.5S9.672,28,10.5,28L10.5,28z" style="fill: #CC2954;"/>
<path fill="#000000" class="scienceandfiction_een" d="M27,21c-0.548,0-1.044,0.222-1.406,0.579l-5.766-3.774C19.937,17.559,20,17.287,20,17  c0-1.104-0.895-2-2-2c-0.115,0-0.225,0.015-0.335,0.034l-1.27-2.604C16.768,12.066,17,11.561,17,11c0-1.104-0.895-2-2-2  c-0.193,0-0.376,0.036-0.552,0.087l-1.042-1.666C13.772,7.059,14,6.556,14,6c0-1.104-0.895-2-2-2c-0.853,0-1.576,0.537-1.864,1.289  L5.983,4.835C5.898,3.809,5.048,3,4,3C2.895,3,2,3.896,2,5s0.895,2,2,2c0.81,0,1.504-0.484,1.818-1.177l4.21,0.46  C10.167,7.252,10.992,8,12,8c0.187,0,0.365-0.034,0.537-0.082l1.046,1.672C13.223,9.951,13,10.45,13,11c0,1.104,0.895,2,2,2  c0.182,0,0.356-0.032,0.524-0.078l1.231,2.525C16.298,15.813,16,16.369,16,17c0,0.709,0.371,1.328,0.927,1.683l-0.743,2.335  C16.123,21.013,16.063,21,16,21c-1.105,0-2,0.896-2,2s0.895,2,2,2c0.505,0,0.961-0.194,1.314-0.503l3.742,2.053  C21.022,26.695,21,26.845,21,27c0,1.104,0.895,2,2,2s2-0.896,2-2c0-0.356-0.101-0.687-0.265-0.977l1.288-1.288  C26.313,24.899,26.643,25,27,25c1.105,0,2-0.896,2-2S28.105,21,27,21z M4,6C3.449,6,3,5.551,3,5s0.449-1,1-1s1,0.449,1,1  S4.551,6,4,6z M11,6c0-0.551,0.449-1,1-1s1,0.449,1,1s-0.449,1-1,1S11,6.551,11,6z M14,11c0-0.551,0.449-1,1-1s1,0.449,1,1  s-0.449,1-1,1S14,11.551,14,11z M19,17c0,0.551-0.449,1-1,1s-1-0.449-1-1s0.449-1,1-1S19,16.449,19,17z M16,24c-0.551,0-1-0.449-1-1  s0.449-1,1-1s1,0.449,1,1S16.551,24,16,24z M17.878,23.667C17.952,23.457,18,23.235,18,23c0-0.686-0.346-1.29-0.872-1.65  l0.752-2.362C17.92,18.99,17.959,19,18,19c0.453,0,0.866-0.156,1.202-0.41l5.887,3.853C25.037,22.621,25,22.805,25,23  c0,0.384,0.114,0.739,0.301,1.043l-1.258,1.257C23.739,25.113,23.384,25,23,25c-0.589,0-1.113,0.259-1.479,0.665L17.878,23.667z   M23,28c-0.551,0-1-0.449-1-1s0.449-1,1-1s1,0.449,1,1S23.551,28,23,28z M27,24c-0.551,0-1-0.449-1-1s0.449-1,1-1s1,0.449,1,1  S27.551,24,27,24z" style="fill: #2B4099;"/>
<metadata><work rdf:about=""><format>image/svg+xml</format><type rdf:resource="http://purl.org/dc/dcmitype/StillImage"/><license rdf:resource="http://creativecommons.org/licenses/by/4.0/"/><attributionname>Kamila Piątkowska</attributionname><attributionurl>http://www.toicon.com/icons/science-and-fiction_connect</attributionurl></work></metadata></svg>
