<?xml version="1.0" standalone="no"?>
<!DOCTYPE svg PUBLIC "-//W3C//DTD SVG 20010904//EN"
 "http://www.w3.org/TR/2001/REC-SVG-20010904/DTD/svg10.dtd">
<svg version="1.0" xmlns="http://www.w3.org/2000/svg"
 width="512.000000pt" height="512.000000pt" viewBox="0 0 512.000000 512.000000"
 preserveAspectRatio="xMidYMid meet">
<metadata>
Created by potrace 1.16, written by Peter Selinger 2001-2019
</metadata>
<g transform="translate(0.000000,512.000000) scale(0.100000,-0.100000)"
fill="#000000" stroke="none">
<path d="M580 5097 c-92 -31 -156 -71 -222 -138 -63 -65 -119 -169 -137 -257
-15 -74 -16 -3569 0 -3644 38 -185 190 -347 378 -402 64 -19 389 -23 422 -6
44 24 64 114 33 158 -30 44 -64 52 -212 52 -162 0 -214 12 -287 68 -36 27 -60
57 -85 106 l-35 69 0 1777 0 1777 35 69 c25 50 49 79 85 106 96 73 -9 68 1471
68 1316 0 1334 0 1388 -20 113 -43 190 -145 206 -276 11 -90 42 -124 113 -124
40 0 53 5 78 29 26 27 29 36 29 98 -1 228 -167 439 -395 499 -41 11 -311 14
-1425 14 l-1375 -1 -65 -22z"/>
<path d="M1682 4256 c-136 -33 -275 -141 -339 -261 -68 -130 -63 9 -63 -1859
0 -1377 3 -1700 14 -1741 48 -182 199 -333 381 -381 41 -11 307 -14 1421 -14
1513 0 1410 -4 1539 63 124 66 235 215 264 355 8 37 11 555 11 1720 0 1820 3
1712 -57 1840 -35 76 -159 200 -235 235 -127 60 -49 57 -1528 56 -1063 -1
-1366 -3 -1408 -13z m2815 -235 c66 -29 143 -111 169 -176 18 -49 19 -95 19
-1716 l0 -1666 -35 -69 c-25 -49 -49 -79 -85 -106 -95 -72 -2 -68 -1476 -68
l-1328 0 -58 22 c-77 29 -152 104 -181 181 l-22 58 0 1648 c0 1802 -4 1694 59
1785 37 54 90 92 164 118 49 17 124 17 1387 15 l1335 -2 52 -24z"/>
<path d="M2183 3400 c-17 -10 -37 -28 -42 -39 -24 -45 -3 -129 38 -151 13 -7
321 -10 918 -10 l899 0 28 28 c34 37 43 89 22 130 -34 65 14 62 -953 62 -852
0 -879 -1 -910 -20z"/>
<path d="M2177 2549 c-43 -25 -61 -114 -31 -157 38 -54 2 -52 949 -52 965 0
917 -3 951 62 21 41 12 93 -22 130 l-28 28 -900 0 c-593 -1 -907 -4 -919 -11z"/>
<path d="M2164 1676 c-28 -28 -34 -42 -34 -76 0 -34 6 -48 34 -76 l34 -34 897
0 897 0 28 29 c52 51 52 111 0 162 l-28 29 -897 0 -897 0 -34 -34z"/>
<path d="M2183 840 c-17 -10 -37 -28 -42 -39 -24 -45 -3 -129 38 -151 13 -7
321 -10 918 -10 l899 0 28 28 c34 37 43 89 22 130 -34 65 14 62 -953 62 -852
0 -879 -1 -910 -20z"/>
</g>
</svg>
