<?xml version="1.0" standalone="no"?>
<!DOCTYPE svg PUBLIC "-//W3C//DTD SVG 20010904//EN"
 "http://www.w3.org/TR/2001/REC-SVG-20010904/DTD/svg10.dtd">
<svg version="1.0" xmlns="http://www.w3.org/2000/svg"
 width="383.000000pt" height="273.000000pt" viewBox="0 0 383.000000 273.000000"
 preserveAspectRatio="xMidYMid meet">

<g transform="translate(0.000000,273.000000) scale(0.100000,-0.100000)"
fill="#000000" stroke="none">
<path d="M1845 2711 c-74 -20 -1722 -694 -1751 -716 -47 -36 -84 -117 -84
-185 0 -68 37 -149 84 -185 27 -20 246 -112 768 -322 l37 -15 3 -382 3 -383
30 -49 c17 -27 49 -60 70 -75 22 -14 219 -103 439 -198 365 -158 403 -173 457
-173 53 0 92 15 466 177 224 97 423 188 440 201 18 14 45 46 60 72 l28 47 3
381 3 382 267 107 c147 60 282 114 300 122 l32 13 0 -230 c0 -202 -2 -230 -16
-230 -27 0 -119 -101 -132 -146 -28 -94 -8 -169 63 -239 101 -102 229 -102
330 0 71 70 91 145 63 239 -13 45 -105 146 -132 146 -14 0 -16 31 -16 265 0
146 4 265 8 265 18 0 85 75 103 114 41 90 10 224 -66 282 -48 36 -1727 713
-1784 718 -25 3 -59 1 -76 -3z m908 -491 c541 -219 848 -348 860 -361 9 -12
17 -34 17 -49 0 -15 -8 -37 -17 -49 -12 -13 -319 -142 -860 -361 -464 -187
-847 -340 -852 -340 -5 0 -388 153 -852 340 -541 218 -850 348 -861 361 -10
12 -18 34 -18 49 0 15 8 37 18 49 11 13 320 143 857 360 462 187 846 340 853
340 7 1 391 -152 855 -339z m-1283 -1163 c347 -140 379 -151 435 -150 53 1
105 19 444 157 211 86 386 156 387 156 2 0 4 -146 4 -324 0 -323 0 -325 -22
-350 -27 -29 -778 -359 -818 -359 -14 0 -115 40 -225 88 -110 48 -283 123
-385 167 -107 46 -195 90 -207 105 -23 24 -23 26 -23 350 0 305 1 325 18 319
9 -4 186 -75 392 -159z m2165 -152 c50 -49 15 -135 -55 -135 -41 0 -80 39 -80
80 0 41 39 80 80 80 19 0 40 -9 55 -25z"/>
</g>
</svg>
