<?xml version="1.0" standalone="no"?>
<!DOCTYPE svg PUBLIC "-//W3C//DTD SVG 20010904//EN"
 "http://www.w3.org/TR/2001/REC-SVG-20010904/DTD/svg10.dtd">
<svg version="1.0" xmlns="http://www.w3.org/2000/svg"
 width="384.000000pt" height="271.000000pt" viewBox="0 0 384.000000 271.000000"
 preserveAspectRatio="xMidYMid meet">

<g transform="translate(0.000000,271.000000) scale(0.100000,-0.100000)"
fill="#000000" stroke="none">
<path d="M1845 2701 c-74 -20 -1722 -694 -1751 -716 -47 -36 -84 -117 -84
-185 0 -68 37 -149 84 -185 18 -14 417 -181 887 -371 816 -331 857 -346 919
-346 62 0 96 12 810 302 410 166 755 306 768 311 l22 9 0 -230 c0 -202 -2
-230 -16 -230 -27 0 -119 -101 -132 -146 -28 -94 -8 -169 63 -239 102 -103
243 -101 338 5 63 70 81 146 55 232 -14 48 -90 136 -124 144 l-24 6 0 262 1
261 38 26 c53 37 91 116 91 189 0 69 -37 149 -85 186 -48 36 -1727 713 -1784
718 -25 3 -59 1 -76 -3z"/>
<path d="M902 808 l3 -295 30 -49 c17 -27 49 -60 70 -75 22 -14 219 -103 439
-198 365 -158 403 -173 457 -173 53 0 92 15 466 177 224 97 423 188 440 201
18 14 45 46 60 72 l28 47 3 293 c2 160 0 292 -3 292 -3 0 -202 -79 -442 -176
-240 -97 -462 -180 -494 -186 -41 -7 -77 -7 -117 0 -33 6 -248 87 -483 182
-233 95 -432 175 -442 178 -17 4 -18 -10 -15 -290z"/>
</g>
</svg>
