<?xml version="1.0"?>
<svg width="32" height="32" xmlns="http://www.w3.org/2000/svg" xmlns:svg="http://www.w3.org/2000/svg">
 <title>to connect</title>
 <desc>An icon for &quot;connect&quot; from the Science and Fiction series on to [icon]. Downloaded from http://www.toicon.com/icons/science-and-fiction_connect by 181.59.57.126 on 2018-02-07. Licensed CC-BY, see http://toicon.com/license/ for details.</desc>
 <metadata>image/svg+xmlKamila Piątkowskahttp://www.toicon.com/icons/science-and-fiction_connect</metadata>
 <g class="layer">
  <title>Layer 1</title>
  <path class="scienceandfiction_twee" d="m5,24l0,1l-1,0l0,-1l1,0l0,0zm5,-7l-1,0l0,1l1,0l0,-1l0,0zm3,-3l-1,0l0,1l1,0l0,-1l0,0zm-4,-4l-1,0l0,1l1,0l0,-1l0,0zm1,12l-1,0l0,1l1,0l0,-1l0,0zm15,-7l-1,0l0,1l1,0l0,-1l0,0zm5,3l-1,0l0,1l1,0l0,-1l0,0zm-3,-15l-1,0l0,1l1,0l0,-1l0,0zm-7,6l-1,0l0,1l1,0l0,-1l0,0zm-2,-6.5c0,0.276 0.224,0.5 0.5,0.5s0.5,-0.224 0.5,-0.5s-0.224,-0.5 -0.5,-0.5s-0.5,0.224 -0.5,0.5zm0.5,-1.5c0.828,0 1.5,0.671 1.5,1.5s-0.672,1.5 -1.5,1.5s-1.5,-0.671 -1.5,-1.5s0.672,-1.5 1.5,-1.5l0,0zm6.5,8.5c0,0.276 0.224,0.5 0.5,0.5s0.5,-0.224 0.5,-0.5s-0.224,-0.5 -0.5,-0.5s-0.5,0.224 -0.5,0.5zm0.5,-1.5c0.828,0 1.5,0.671 1.5,1.5s-0.672,1.5 -1.5,1.5s-1.5,-0.671 -1.5,-1.5s0.672,-1.5 1.5,-1.5l0,0zm-22.5,4.5c0,0.276 0.224,0.5 0.5,0.5s0.5,-0.224 0.5,-0.5s-0.224,-0.5 -0.5,-0.5s-0.5,0.224 -0.5,0.5zm0.5,-1.5c0.828,0 1.5,0.671 1.5,1.5s-0.672,1.5 -1.5,1.5s-1.5,-0.671 -1.5,-1.5s0.672,-1.5 1.5,-1.5l0,0zm6.5,18.5c0,0.276 0.224,0.5 0.5,0.5s0.5,-0.224 0.5,-0.5s-0.224,-0.5 -0.5,-0.5s-0.5,0.224 -0.5,0.5zm0.5,-1.5c0.828,0 1.5,0.671 1.5,1.5s-0.672,1.5 -1.5,1.5s-1.5,-0.671 -1.5,-1.5s0.672,-1.5 1.5,-1.5l0,0z" fill="#000000" id="svg_1"/>
  <path class="scienceandfiction_een" d="m27,21c-0.548,0 -1.044,0.222 -1.406,0.579l-5.766,-3.774c0.109,-0.246 0.172,-0.518 0.172,-0.805c0,-1.104 -0.895,-2 -2,-2c-0.115,0 -0.225,0.015 -0.335,0.034l-1.27,-2.604c0.373,-0.364 0.605,-0.869 0.605,-1.43c0,-1.104 -0.895,-2 -2,-2c-0.193,0 -0.376,0.036 -0.552,0.087l-1.042,-1.666c0.366,-0.362 0.594,-0.865 0.594,-1.421c0,-1.104 -0.895,-2 -2,-2c-0.853,0 -1.576,0.537 -1.864,1.289l-4.153,-0.454c-0.085,-1.026 -0.935,-1.835 -1.983,-1.835c-1.105,0 -2,0.896 -2,2s0.895,2 2,2c0.81,0 1.504,-0.484 1.818,-1.177l4.21,0.46c0.139,0.969 0.964,1.717 1.972,1.717c0.187,0 0.365,-0.034 0.537,-0.082l1.046,1.672c-0.36,0.361 -0.583,0.86 -0.583,1.41c0,1.104 0.895,2 2,2c0.182,0 0.356,-0.032 0.524,-0.078l1.231,2.525c-0.457,0.366 -0.755,0.922 -0.755,1.553c0,0.709 0.371,1.328 0.927,1.683l-0.743,2.335c-0.061,-0.005 -0.121,-0.018 -0.184,-0.018c-1.105,0 -2,0.896 -2,2s0.895,2 2,2c0.505,0 0.961,-0.194 1.314,-0.503l3.742,2.053c-0.034,0.145 -0.056,0.295 -0.056,0.45c0,1.104 0.895,2 2,2s2,-0.896 2,-2c0,-0.356 -0.101,-0.687 -0.265,-0.977l1.288,-1.288c0.29,0.164 0.62,0.265 0.977,0.265c1.105,0 2,-0.896 2,-2s-0.895,-2 -2,-2zm-23,-15c-0.551,0 -1,-0.449 -1,-1s0.449,-1 1,-1s1,0.449 1,1s-0.449,1 -1,1zm7,0c0,-0.551 0.449,-1 1,-1s1,0.449 1,1s-0.449,1 -1,1s-1,-0.449 -1,-1zm3,5c0,-0.551 0.449,-1 1,-1s1,0.449 1,1s-0.449,1 -1,1s-1,-0.449 -1,-1zm5,6c0,0.551 -0.449,1 -1,1s-1,-0.449 -1,-1s0.449,-1 1,-1s1,0.449 1,1zm-3,7c-0.551,0 -1,-0.449 -1,-1s0.449,-1 1,-1s1,0.449 1,1s-0.449,1 -1,1zm1.878,-0.333c0.074,-0.21 0.122,-0.432 0.122,-0.667c0,-0.686 -0.346,-1.29 -0.872,-1.65l0.752,-2.362c0.04,0.002 0.079,0.012 0.12,0.012c0.453,0 0.866,-0.156 1.202,-0.41l5.887,3.853c-0.052,0.178 -0.089,0.362 -0.089,0.557c0,0.384 0.114,0.739 0.301,1.043l-1.258,1.257c-0.304,-0.187 -0.659,-0.3 -1.043,-0.3c-0.589,0 -1.113,0.259 -1.479,0.665l-3.643,-1.998zm5.122,4.333c-0.551,0 -1,-0.449 -1,-1s0.449,-1 1,-1s1,0.449 1,1s-0.449,1 -1,1zm4,-4c-0.551,0 -1,-0.449 -1,-1s0.449,-1 1,-1s1,0.449 1,1s-0.449,1 -1,1z" fill="#000000" id="svg_2"/>
 </g>
</svg>
