<?xml version="1.0" standalone="no"?>
<!DOCTYPE svg PUBLIC "-//W3C//DTD SVG 20010904//EN"
 "http://www.w3.org/TR/2001/REC-SVG-20010904/DTD/svg10.dtd">
<svg version="1.0" xmlns="http://www.w3.org/2000/svg"
 width="512.000000pt" height="512.000000pt" viewBox="0 0 512.000000 512.000000"
 preserveAspectRatio="xMidYMid meet">

<g transform="translate(0.000000,512.000000) scale(0.100000,-0.100000)"
fill="#FFFFFF" stroke="none">
<path d="M1055 3698 c-525 -38 -961 -443 -1040 -968 -77 -501 185 -986 649
-1206 326 -154 732 -141 1044 32 124 69 52 8 1197 1024 620 550 649 574 722
612 240 126 519 113 737 -33 140 -93 240 -225 294 -387 23 -67 26 -94 26 -212
0 -118 -3 -145 -26 -212 -54 -162 -154 -294 -294 -387 -213 -143 -491 -158
-725 -41 -73 37 -122 76 -290 226 -77 68 -141 124 -144 124 -6 0 -310 -271
-313 -280 -3 -8 306 -287 383 -346 158 -122 370 -203 585 -223 742 -70 1357
576 1245 1309 -57 379 -297 699 -649 866 -374 177 -844 132 -1167 -111 -31
-24 -155 -130 -275 -237 -120 -107 -339 -300 -485 -429 -146 -129 -408 -361
-582 -516 -351 -313 -386 -342 -466 -383 -234 -117 -512 -102 -725 41 -140 93
-240 225 -294 387 -23 67 -26 94 -26 212 0 118 3 145 26 212 54 162 154 294
294 387 218 146 503 159 734 34 77 -41 112 -69 287 -226 92 -82 137 -116 146
-110 24 14 307 266 307 274 0 10 -358 324 -421 368 -208 148 -479 220 -754
199z"/>
</g>
</svg>
