<?xml version="1.0" standalone="no"?>
<!DOCTYPE svg PUBLIC "-//W3C//DTD SVG 20010904//EN"
 "http://www.w3.org/TR/2001/REC-SVG-20010904/DTD/svg10.dtd">
<svg version="1.0" xmlns="http://www.w3.org/2000/svg"
 width="512.000000pt" height="512.000000pt" viewBox="0 0 512.000000 512.000000"
 preserveAspectRatio="xMidYMid meet">

<g transform="translate(0.000000,512.000000) scale(0.100000,-0.100000)"
fill="#000000" stroke="none">
<path d="M2493 5108 c-17 -6 -45 -22 -62 -37 -34 -30 -2388 -3083 -2409 -3123
-65 -131 35 -288 182 -288 15 0 551 158 1192 350 l1166 351 1151 -348 c1282
-387 1236 -376 1318 -318 71 50 102 137 80 218 -19 65 -2401 3152 -2455 3180
-45 24 -118 30 -163 15z m877 -1564 c443 -575 851 -1106 908 -1179 87 -114 98
-133 75 -125 -185 61 -1770 530 -1792 530 -21 0 -1698 -496 -1809 -535 -15 -5
-58 -63 998 1309 443 575 807 1045 810 1045 3 0 367 -470 810 -1045z"/>
<path d="M2092 1789 c-48 -14 -106 -77 -121 -130 -9 -33 -11 -224 -9 -785 l3
-740 27 -41 c41 -62 90 -88 168 -88 78 0 127 26 168 88 l27 40 5 353 5 353
220 -386 c145 -255 230 -393 250 -409 17 -12 52 -29 78 -35 86 -24 184 20 223
98 18 36 19 73 19 799 l0 760 -27 41 c-41 63 -90 88 -169 88 -54 0 -72 -5
-106 -27 -22 -15 -51 -44 -64 -65 -24 -38 -24 -41 -29 -390 l-5 -352 -221 387
c-247 433 -252 439 -355 447 -29 2 -69 0 -87 -6z"/>
</g>
</svg>
