<?xml version="1.0" standalone="no"?>
<!DOCTYPE svg PUBLIC "-//W3C//DTD SVG 20010904//EN"
 "http://www.w3.org/TR/2001/REC-SVG-20010904/DTD/svg10.dtd">
<svg version="1.0" xmlns="http://www.w3.org/2000/svg"
 width="512.000000pt" height="512.000000pt" viewBox="0 0 512.000000 512.000000"
 preserveAspectRatio="xMidYMid meet">

<g transform="translate(0.000000,512.000000) scale(0.100000,-0.100000)"
fill="#000000" stroke="none">
<path d="M4212 4495 c-84 -43 -132 -122 -132 -217 1 -76 24 -119 120 -214 l85
-84 -335 0 c-498 0 -638 -17 -855 -101 -102 -39 -229 -107 -292 -155 -21 -16
-46 -50 -60 -81 -52 -113 -13 -243 91 -308 43 -26 59 -30 121 -30 66 0 76 3
151 47 103 60 184 93 287 119 75 20 118 22 485 26 261 3 402 2 402 -5 0 -5
-33 -39 -74 -76 -91 -81 -126 -144 -126 -225 1 -178 189 -294 345 -214 51 27
631 588 663 643 36 59 38 163 5 225 -23 43 -590 600 -655 643 -28 18 -55 26
-106 29 -58 4 -74 1 -120 -22z"/>
<path d="M191 3970 c-102 -21 -175 -103 -188 -208 -11 -97 40 -193 127 -237
l49 -25 530 0 c297 0 574 -5 631 -10 328 -34 599 -221 745 -515 71 -142 93
-237 104 -447 5 -90 17 -199 26 -243 60 -289 184 -515 394 -725 199 -198 411
-317 678 -379 132 -31 292 -41 668 -41 l330 0 -87 -85 c-102 -101 -123 -143
-116 -234 6 -78 46 -144 113 -186 43 -27 57 -30 125 -30 66 0 82 4 116 26 66
44 634 600 657 644 33 62 31 166 -5 225 -32 55 -612 616 -663 643 -156 80
-344 -36 -345 -214 0 -81 34 -143 126 -224 40 -37 74 -71 74 -77 0 -7 -133 -9
-402 -6 -393 5 -405 6 -499 31 -340 90 -593 343 -684 683 -9 33 -20 130 -25
217 -6 87 -14 188 -20 225 -83 528 -461 968 -972 1130 -195 63 -226 65 -863
68 -319 1 -600 -1 -624 -6z"/>
<path d="M1831 1809 c-18 -6 -50 -21 -70 -33 -129 -82 -275 -131 -428 -146
-60 -5 -343 -10 -631 -10 l-523 0 -49 -25 c-147 -74 -173 -285 -48 -390 74
-62 46 -60 703 -60 536 0 611 2 700 18 234 43 515 168 599 267 91 109 54 291
-74 357 -53 27 -131 37 -179 22z"/>
</g>
</svg>
