<?xml version="1.0" standalone="no"?>
<!DOCTYPE svg PUBLIC "-//W3C//DTD SVG 20010904//EN"
 "http://www.w3.org/TR/2001/REC-SVG-20010904/DTD/svg10.dtd">
<svg version="1.0" xmlns="http://www.w3.org/2000/svg"
 width="512.000000pt" height="512.000000pt" viewBox="0 0 512.000000 512.000000"
 preserveAspectRatio="xMidYMid meet">

<g transform="translate(0.000000,512.000000) scale(0.100000,-0.100000)"
fill="#000000" stroke="none">
<path d="M2412 5100 c-110 -30 -187 -75 -272 -160 -87 -86 -131 -163 -160
-276 -51 -197 3 -402 146 -554 109 -115 235 -173 413 -190 107 -10 153 -33
192 -97 36 -57 34 -154 -3 -210 -41 -63 -90 -88 -170 -88 -58 0 -72 4 -109 30
-25 17 -57 54 -76 88 -48 82 -97 112 -182 112 -78 0 -128 -25 -167 -84 -50
-77 -42 -165 26 -271 85 -130 212 -221 366 -260 141 -36 295 -18 427 52 81 42
203 164 245 245 121 231 84 504 -94 693 -108 114 -235 173 -412 190 -107 10
-149 30 -190 93 -37 56 -39 153 -3 210 47 76 140 111 228 88 53 -15 95 -50
137 -116 48 -74 94 -100 177 -100 54 0 72 5 106 27 62 41 88 90 88 168 0 55
-5 74 -33 122 -105 182 -295 295 -512 304 -73 3 -112 0 -168 -16z"/>
<path d="M132 3449 c-45 -13 -105 -76 -120 -125 -15 -51 -15 -76 -1 -124 7
-24 435 -587 1213 -1595 986 -1279 1209 -1562 1241 -1579 53 -28 136 -28 189
0 33 17 256 301 1242 1579 916 1188 1205 1569 1215 1602 22 81 -9 168 -80 218
-82 58 -36 69 -1318 -318 l-1151 -348 -1166 351 c-642 192 -1181 350 -1199
349 -17 0 -47 -5 -65 -10z m1517 -834 c486 -146 896 -265 912 -265 22 0 1607
469 1792 530 23 8 12 -11 -75 -125 -569 -742 -1714 -2224 -1718 -2224 -3 0
-367 470 -810 1045 -1056 1372 -1013 1314 -998 1309 7 -2 411 -124 897 -270z"/>
</g>
</svg>
