<?xml version="1.0" encoding="utf-8"?>
<!-- Generator: Adobe Illustrator 19.2.0, SVG Export Plug-In . SVG Version: 6.00 Build 0)  -->
<svg version="1.1" id="stars" xmlns="http://www.w3.org/2000/svg" xmlns:xlink="http://www.w3.org/1999/xlink" x="0px" y="0px"
	 viewBox="0 0 196 220" enable-background="new 0 0 196 220" xml:space="preserve">
<g>
	<path fill="none" d="M25.1755,56.2852L24,52.7344l-1.1757,3.5508c-0.3988,1.1992-1.34,2.1404-2.5392,2.5392L16.7343,60
		l3.5508,1.1756c1.1992,0.3988,2.1404,1.34,2.5392,2.5392L24,67.2656l1.1755-3.5508c0.3988-1.1992,1.34-2.1404,2.5392-2.5392
		L31.2655,60l-3.5508-1.1756C26.5155,58.4256,25.5743,57.4844,25.1755,56.2852z"/>
	<path fill="none" d="M85.1755,192.2852L84,188.7344l-1.1757,3.5508c-0.3988,1.1992-1.34,2.1404-2.5392,2.5392L76.7343,196
		l3.5508,1.1756c1.1992,0.3988,2.1404,1.34,2.5392,2.5392L84,203.2656l1.1755-3.5508c0.3988-1.1992,1.34-2.1404,2.5392-2.5392
		L91.2655,196l-3.5508-1.1756C86.5155,194.4256,85.5743,193.4844,85.1755,192.2852z"/>
	<path fill="none" d="M108.6443,110.8164L104,96.7852l-4.6445,14.0312c-0.3984,1.1992-1.34,2.1408-2.5392,2.5392L82.7851,118
		l14.0312,4.6444c1.1992,0.3984,2.1408,1.34,2.5392,2.5392L104,139.2148l4.6443-14.0312c0.3984-1.1992,1.34-2.1408,2.5392-2.5392
		L125.2147,118l-14.0312-4.6444C109.9843,112.9572,109.0427,112.0156,108.6443,110.8164z"/>
	<path fill="none" d="M62.8243,27.7148L64,31.2656l1.1755-3.5508c0.3988-1.1992,1.34-2.1404,2.5392-2.5392L71.2655,24
		l-3.5508-1.1756c-1.1992-0.3988-2.1404-1.34-2.5392-2.5392L64,16.7344l-1.1757,3.5508c-0.3988,1.1992-1.34,2.1404-2.5392,2.5392
		L56.7343,24l3.5508,1.1756C61.4843,25.5744,62.4255,26.5156,62.8243,27.7148z"/>
	<path fill="none" d="M167.168,50.2928L164,40.7264l-3.168,9.5664c-0.3985,1.1992-1.34,2.1408-2.5393,2.5392L148.7263,56
		l9.5664,3.168c1.1993,0.3984,2.1408,1.34,2.5393,2.5392L164,71.2736l3.168-9.5664c0.3983-1.1992,1.34-2.1408,2.5391-2.5392
		L179.2735,56l-9.5664-3.168C168.508,52.4336,167.5663,51.492,167.168,50.2928z"/>
	<path d="M64,48c1.7263,0,3.2539-1.1056,3.7967-2.742l4.34-13.1212l13.1212-4.34C86.8943,27.254,88,25.7264,88,24
		c0-1.7264-1.1057-3.254-2.7421-3.7968l-13.1212-4.34l-4.34-13.1212C67.2539,1.1056,65.7263,0,64,0
		c-1.7265,0-3.2541,1.1056-3.7969,2.742l-4.34,13.1212l-13.1212,4.34C41.1055,20.746,40,22.2736,40,24
		c0,1.7264,1.1055,3.254,2.7419,3.7968l13.1212,4.34l4.34,13.1212C60.7459,46.8944,62.2735,48,64,48z M60.2851,22.8244
		c1.1992-0.3988,2.1404-1.34,2.5392-2.5392L64,16.7344l1.1755,3.5508c0.3988,1.1992,1.34,2.1404,2.5392,2.5392L71.2655,24
		l-3.5508,1.1756c-1.1992,0.3988-2.1404,1.34-2.5392,2.5392L64,31.2656l-1.1757-3.5508c-0.3988-1.1992-1.34-2.1404-2.5392-2.5392
		L56.7343,24L60.2851,22.8244z"/>
	<path d="M45.2579,56.2032l-13.1212-4.34l-4.34-13.1212C27.2539,37.1056,25.7263,36,24,36c-1.7265,0-3.2541,1.1056-3.7969,2.742
		l-4.34,13.1212l-13.1212,4.34C1.1055,56.746,0,58.2736,0,60c0,1.7264,1.1055,3.254,2.7419,3.7968l13.1212,4.34l4.34,13.1212
		C20.7459,82.8944,22.2735,84,24,84c1.7263,0,3.2539-1.1056,3.7967-2.742l4.34-13.1212l13.1212-4.34
		C46.8943,63.254,48,61.7264,48,60C48,58.2736,46.8943,56.746,45.2579,56.2032z M27.7147,61.1756
		c-1.1992,0.3988-2.1404,1.34-2.5392,2.5392L24,67.2656l-1.1757-3.5508c-0.3988-1.1992-1.34-2.1404-2.5392-2.5392L16.7343,60
		l3.5508-1.1756c1.1992-0.3988,2.1404-1.34,2.5392-2.5392L24,52.7344l1.1755,3.5508c0.3988,1.1992,1.34,2.1404,2.5392,2.5392
		L31.2655,60L27.7147,61.1756z"/>
	<path d="M105.2579,192.2032l-13.1212-4.34l-4.34-13.1212C87.2539,173.1056,85.7263,172,84,172
		c-1.7265,0-3.2541,1.1056-3.7969,2.742l-4.34,13.1212l-13.1212,4.34C61.1055,192.746,60,194.2736,60,196
		c0,1.7264,1.1055,3.254,2.7419,3.7968l13.1212,4.34l4.34,13.1212C80.7459,218.8944,82.2735,220,84,220
		c1.7263,0,3.2539-1.1056,3.7967-2.742l4.34-13.1212l13.1212-4.34C106.8943,199.254,108,197.7264,108,196
		C108,194.2736,106.8943,192.746,105.2579,192.2032z M87.7147,197.1756c-1.1992,0.3988-2.1404,1.34-2.5392,2.5392L84,203.2656
		l-1.1757-3.5508c-0.3988-1.1992-1.34-2.1404-2.5392-2.5392L76.7343,196l3.5508-1.1756c1.1992-0.3988,2.1404-1.34,2.5392-2.5392
		L84,188.7344l1.1755,3.5508c0.3988,1.1992,1.34,2.1404,2.5392,2.5392L91.2655,196L87.7147,197.1756z"/>
	<path d="M193.2579,52.2032l-19.1292-6.332l-6.332-19.1292C167.2539,25.1056,165.7263,24,164,24
		c-1.7265,0-3.2541,1.1056-3.7969,2.742l-6.332,19.1292l-19.1292,6.332C133.1055,52.746,132,54.2736,132,56
		c0,1.7264,1.1055,3.254,2.7419,3.7968l19.1292,6.332l6.332,19.1292C160.7459,86.8944,162.2735,88,164,88
		c1.7263,0,3.2539-1.1056,3.7967-2.742l6.332-19.1292l19.1292-6.332C194.8943,59.254,196,57.7264,196,56
		C196,54.2736,194.8943,52.746,193.2579,52.2032z M169.7071,59.168c-1.1991,0.3984-2.1408,1.34-2.5391,2.5392L164,71.2736
		l-3.168-9.5664c-0.3985-1.1992-1.34-2.1408-2.5393-2.5392L148.7263,56l9.5664-3.168c1.1993-0.3984,2.1408-1.34,2.5393-2.5392
		L164,40.7264l3.168,9.5664c0.3983,1.1992,1.34,2.1408,2.5391,2.5392L179.2735,56L169.7071,59.168z"/>
	<path d="M139.1991,114.2032l-23.5936-7.8088l-7.8088-23.5936c-0.5428-1.6368-2.0704-2.7424-3.7967-2.7424
		c-1.7265,0-3.2541,1.1056-3.7969,2.7424l-7.8088,23.5936l-23.5936,7.8088c-1.6367,0.5428-2.7424,2.0704-2.7424,3.7968
		c0,1.7264,1.1057,3.254,2.7424,3.7968l23.5936,7.8088l7.8088,23.5936c0.5428,1.6368,2.0704,2.7424,3.7969,2.7424
		c1.7263,0,3.2539-1.1056,3.7967-2.7424l7.8088-23.5936l23.5936-7.8088c1.6369-0.5428,2.7424-2.0704,2.7424-3.7968
		C141.9415,116.2736,140.836,114.746,139.1991,114.2032z M111.1835,122.6444c-1.1992,0.3984-2.1408,1.34-2.5392,2.5392L104,139.2148
		l-4.6445-14.0312c-0.3984-1.1992-1.34-2.1408-2.5392-2.5392L82.7851,118l14.0312-4.6444c1.1992-0.3984,2.1408-1.34,2.5392-2.5392
		L104,96.7852l4.6443,14.0312c0.3984,1.1992,1.34,2.1408,2.5392,2.5392L125.2147,118L111.1835,122.6444z"/>
</g>
</svg>
