<?xml version="1.0" encoding="windows-1252"?>
<!-- Generator: Adobe Illustrator 16.0.0, SVG Export Plug-In . SVG Version: 6.00 Build 0)  -->
<!DOCTYPE svg PUBLIC "-//W3C//DTD SVG 1.1//EN" "http://www.w3.org/Graphics/SVG/1.1/DTD/svg11.dtd">
<svg version="1.1" id="Capa_1" xmlns="http://www.w3.org/2000/svg" xmlns:xlink="http://www.w3.org/1999/xlink" x="0px" y="0px" width="31.77px" height="31.77px" viewBox="0 0 31.77 31.77" style="enable-background:new 0 0 31.77 31.77;" xml:space="preserve">
<g>
	<g>
		<path d="M30.901,13.257c-0.043-0.016-2.787-1.014-2.787-1.014c0.057-1.386-0.443-2.539-1.379-2.924L8.634,2.616    C8.282,1.463,7.557,0.575,6.521,0.192C6.178,0.066,5.812,0,5.44,0C3.524,0,1.625,1.66,0.714,4.129    c-1.105,3.001-0.286,5.972,1.862,6.766c0.346,0.126,0.708,0.191,1.082,0.191c0.721,0,1.439-0.235,2.104-0.661l6.876,2.536    c-0.103,0.441-0.153,0.899-0.153,1.368c0,1.896,0.858,3.59,2.207,4.72l-5.093,10.02c-0.298,0.584-0.065,1.301,0.521,1.598    c0.175,0.086,0.356,0.131,0.537,0.131c0.435,0,0.852-0.238,1.062-0.65l5.061-9.953c0.215,0.068,0.438,0.125,0.662,0.168    c0,0.001,0,0.001,0.002,0.001v10.219c0,0.658,0.534,1.188,1.191,1.188s1.19-0.53,1.19-1.188v-10.22    c-0.047,0.009-0.051,0.009-0.008,0c0.226-0.043,0.441-0.1,0.654-0.166l5.061,9.951c0.209,0.412,0.627,0.65,1.062,0.65    c0.182,0,0.365-0.045,0.537-0.131c0.586-0.297,0.817-1.014,0.522-1.598L22.56,19.047c0.634-0.527,1.157-1.179,1.537-1.918    c0.907,0.17,1.933-0.381,2.726-1.386l2.826,1.003c0.61,0.197,1.381-0.395,1.728-1.337C31.731,14.448,31.517,13.484,30.901,13.257z     M6.152,6.135c-0.665,1.808-2.005,2.807-2.753,2.53C2.642,8.384,2.287,6.737,2.944,4.951c0.593-1.609,1.734-2.574,2.495-2.574    c0.093,0,0.177,0.017,0.259,0.046C6.457,2.702,6.81,4.35,6.152,6.135z M10.23,7.32c-0.617-0.226-0.935-0.908-0.71-1.524    c0.226-0.619,0.908-0.935,1.525-0.709L21.154,8.78c0.619,0.225,0.938,0.907,0.711,1.523c-0.176,0.483-0.633,0.782-1.119,0.782    C20.612,11.086,10.23,7.32,10.23,7.32z M22.457,15.752c-0.193,1.473-1.219,2.551-2.286,2.407    c-1.069-0.142-1.777-1.447-1.585-2.918c0.191-1.469,1.216-2.546,2.285-2.405C21.942,12.974,22.651,14.283,22.457,15.752z"/>
	</g>
</g>
<g>
</g>
<g>
</g>
<g>
</g>
<g>
</g>
<g>
</g>
<g>
</g>
<g>
</g>
<g>
</g>
<g>
</g>
<g>
</g>
<g>
</g>
<g>
</g>
<g>
</g>
<g>
</g>
<g>
</g>
</svg>